<svg width="12" height="12" viewBox="0 0 12 12" xmlns="http://www.w3.org/2000/svg">
    <title>
        icon-email-success
    </title>
    <path d="M11.813.074c.148.107.208.25.181.428L10.28 10.788a.422.422 0 0 1-.422.355.45.45 0 0 1-.16-.034L6.663 9.871l-1.62 1.975a.394.394 0 0 1-.329.154.42.42 0 0 1-.352-.184.418.418 0 0 1-.077-.245V9.234l5.786-7.091-7.158 6.194L.269 7.252A.393.393 0 0 1 0 6.884a.397.397 0 0 1 .214-.395L11.358.06a.416.416 0 0 1 .455.013z" fill="#20AA62" fill-rule="evenodd"/>
</svg>
