<svg width="36" height="45" viewBox="0 0 36 45" xmlns="http://www.w3.org/2000/svg">
    <title>
        logomark
    </title>
    <defs>
        <linearGradient x1="50%" y1="0%" x2="50%" y2="97.379%" id="a">
            <stop stop-color="#437AF4" offset="0%"/>
            <stop stop-color="#2B60D5" offset="100%"/>
        </linearGradient>
        <linearGradient x1="50%" y1="100%" x2="50%" y2="2.742%" id="b">
            <stop stop-color="#FFF" stop-opacity=".7" offset="0%"/>
            <stop stop-color="#FFF" stop-opacity=".3" offset="100%"/>
        </linearGradient>
    </defs>
    <g fill="none" fill-rule="evenodd">
        <path d="M35.236 37.159a3.921 3.921 0 0 1-2.416 3.615c-.462.19-12.615 4.105-12.676 4.124a1.945 1.945 0 0 1-.569.084 1.957 1.957 0 0 1-1.957-1.956v-9.779H3.915A3.913 3.913 0 0 1 0 29.336V3.91A3.913 3.913 0 0 1 3.915 0h27.406a3.913 3.913 0 0 1 3.915 3.911V37.16z" fill="url(#a)"/>
        <path d="M31.32 33.247a3.913 3.913 0 0 1 3.916 3.912 3.921 3.921 0 0 1-2.416 3.615c-.462.19-12.615 4.105-12.676 4.124a1.945 1.945 0 0 1-.569.084 1.957 1.957 0 0 1-1.957-1.956v-9.779H31.32z" fill="url(#b)"/>
        <path d="M9.788 5.867h15.66a1.957 1.957 0 1 1 0 3.912H9.788a1.957 1.957 0 1 1 0-3.912zm7.83 7.823h7.83a1.957 1.957 0 1 1 0 3.912h-7.83a1.957 1.957 0 1 1 0-3.912zm-3.915 7.823h11.745a1.957 1.957 0 1 1 0 3.911H13.703a1.957 1.957 0 1 1 0-3.911z" fill="#FFF"/>
    </g>
</svg>
