<?xml version="1.0" encoding="UTF-8" standalone="no"?>
<svg width="220px" height="113px" viewBox="0 0 220 113" version="1.1" xmlns="http://www.w3.org/2000/svg" xmlns:xlink="http://www.w3.org/1999/xlink" xmlns:sketch="http://www.bohemiancoding.com/sketch/ns">
    <!-- Generator: Sketch 3.3.3 (12081) - http://www.bohemiancoding.com/sketch -->
    <title>Imported Layers</title>
    <desc>Created with Sketch.</desc>
    <defs></defs>
    <g id="Page-1" stroke="none" stroke-width="1" fill="none" fill-rule="evenodd" sketch:type="MSPage">
        <g id="Imported-Layers" sketch:type="MSLayerGroup">
            <path d="M20.0290411,90.7680822 L23.8805479,90.7680822 L26.5054795,112.33411 L21.9080822,112.33411 L20.4042466,99.4053425 L15.3638356,109.86137 L11.8272603,109.86137 L6.75520548,99.4053425 L5.22424658,112.33411 L0.620821918,112.33411 L3.28493151,90.7680822 L7.07013699,90.7680822 L13.579726,104.665753 L20.0290411,90.7680822" id="Fill-1" fill="#1F3244" sketch:type="MSShapeGroup"></path>
            <path d="M37.5747945,90.7680822 L51.2253425,90.7680822 L51.2253425,94.8049315 L42.1450685,94.8049315 L42.1450685,99.720274 L50.0982192,99.720274 L50.0982192,103.693836 L42.1450685,103.693836 L42.1450685,108.29726 L51.5071233,108.29726 L51.5071233,112.33411 L37.5747945,112.33411 L37.5747945,90.7680822" id="Fill-2" fill="#1F3244" sketch:type="MSShapeGroup"></path>
            <path d="M63.1294521,112.33411 L63.1294521,90.7680822 L71.5783562,90.7680822 C77.7790411,90.7680822 81.3156164,95.4619178 81.3156164,101.596301 C81.3156164,107.700548 77.7790411,112.33411 71.5783562,112.33411 L63.1294521,112.33411 L63.1294521,112.33411 Z M67.6982192,108.170685 L71.5783562,108.170685 C75.0215068,108.170685 76.7453425,105.13589 76.7453425,101.596301 C76.7453425,98.029589 75.0215068,94.9315068 71.5783562,94.9315068 L67.6982192,94.9315068 L67.6982192,108.170685 L67.6982192,108.170685 Z" id="Fill-3" fill="#1F3244" sketch:type="MSShapeGroup"></path>
            <path d="M92.3126027,90.7680822 L96.8828767,90.7680822 L96.8828767,112.33411 L92.3126027,112.33411 L92.3126027,90.7680822 Z" id="Fill-4" fill="#1F3244" sketch:type="MSShapeGroup"></path>
            <path d="M114.036849,107.233425 L112.124658,112.33411 L107.245479,112.33411 L115.257397,90.7680822 L120.231507,90.7680822 L128.217808,112.33411 L123.392877,112.33411 L121.486712,107.233425 L114.036849,107.233425 L114.036849,107.233425 Z M120.016027,103.256849 L117.72863,95.7436986 L115.540685,103.256849 L120.016027,103.256849 L120.016027,103.256849 Z" id="Fill-5" fill="#1F3244" sketch:type="MSShapeGroup"></path>
            <path d="M138.62863,90.7680822 L143.226027,90.7680822 L143.226027,108.29726 L151.301233,108.29726 L151.301233,112.33411 L138.62863,112.33411 L138.62863,90.7680822" id="Fill-6" fill="#1F3244" sketch:type="MSShapeGroup"></path>
            <path d="M162.176164,90.7680822 L166.741918,90.7680822 L166.741918,112.33411 L162.176164,112.33411 L162.176164,90.7680822 Z" id="Fill-7" fill="#1F3244" sketch:type="MSShapeGroup"></path>
            <path d="M183.320274,106.012877 C183.380548,107.38863 184.474521,108.609178 186.541918,108.609178 C188.387808,108.609178 189.670137,107.733699 189.703288,106.324795 C189.736438,105.354384 189.294932,104.509041 187.105479,103.882192 L184.507671,103.163425 C179.750548,101.691233 178.938356,98.9050685 178.938356,96.9657534 C178.938356,93.1172603 182.221781,90.5164384 186.355068,90.5164384 C190.515479,90.5164384 193.649726,92.9891781 193.649726,97.1224658 L189.079452,97.1224658 C189.079452,95.680411 188.106027,94.679863 186.293288,94.679863 C184.697534,94.679863 183.50863,95.5568493 183.50863,96.8406849 C183.50863,97.4027397 183.72411,98.4349315 185.824658,99.0331507 L188.387808,99.8453425 C193.615068,101.347671 194.366986,104.290548 194.306712,106.354932 C194.240411,110.643425 190.360274,112.679178 186.541918,112.679178 C181.845068,112.679178 178.716849,109.891507 178.716849,106.012877 L183.320274,106.012877" id="Fill-8" fill="#1F3244" sketch:type="MSShapeGroup"></path>
            <path d="M203.646164,90.7680822 L219.920137,90.7680822 L219.920137,94.8983562 L214.102192,94.8983562 L214.102192,112.33411 L209.465616,112.33411 L209.465616,94.8983562 L203.646164,94.8983562 L203.646164,90.7680822" id="Fill-9" fill="#1F3244" sketch:type="MSShapeGroup"></path>
            <path d="M142.903562,2.75452055 L111.219041,19.3027397 L111.219041,68.7936986 L143.751918,51.8024658 C144.612329,51.3549315 145.150274,50.4658904 145.150274,49.4954795 L145.150274,4.11671233 C145.150274,2.96246575 143.925205,2.22109589 142.903562,2.75452055" id="Fill-10" fill="#4B76A0" sketch:type="MSShapeGroup"></path>
            <path d="M82.4321918,10.0747945 L111.219041,25.1086301 L113.60137,23.8639726 L140.002877,10.0747945 L140.002877,47.9554795 L111.219041,62.9878082 L82.4321918,47.9554795 L82.4321918,10.0747945 M143.613288,2.57821918 C143.378219,2.57821918 143.13411,2.6339726 142.903562,2.75452055 L111.219041,19.3027397 L79.5345205,2.75452055 C79.3024658,2.6339726 79.059863,2.57821918 78.8247945,2.57821918 C78.0186301,2.57821918 77.2878082,3.22465753 77.2878082,4.11671233 L77.2878082,49.4954795 C77.2878082,50.4658904 77.8257534,51.3549315 78.6846575,51.8024658 L111.219041,68.7936986 L143.751918,51.8024658 C144.610822,51.3549315 145.148767,50.4658904 145.148767,49.4954795 L145.148767,4.11671233 C145.148767,3.22465753 144.417945,2.57821918 143.613288,2.57821918" id="Fill-11" fill="#FFFFFF" sketch:type="MSShapeGroup"></path>
            <path d="M111.219041,70.8520548 L77.8408219,53.4193151 C76.3746575,52.6553425 75.4630137,51.1515068 75.4630137,49.4954795 L75.4630137,4.11671233 C75.4630137,2.93082192 76.0687671,1.85794521 77.0828767,1.24315068 C78.0969863,0.632876712 79.3310959,0.590684932 80.3768493,1.13917808 L111.219041,17.2458904 L142.059726,1.13917808 C143.108493,0.589178082 144.341096,0.629863014 145.355205,1.24315068 C146.367808,1.85794521 146.973562,2.93082192 146.973562,4.11671233 L146.973562,49.4954795 C146.973562,51.1530137 146.060411,52.6553425 144.59274,53.4208219 L111.219041,70.8520548 L111.219041,70.8520548 Z M79.1126027,4.59136986 L79.1126027,49.4954795 C79.1126027,49.7878082 79.2723288,50.0530137 79.5284932,50.1856164 L111.219041,66.7368493 L142.906575,50.1871233 C143.165753,50.0515068 143.323973,49.7878082 143.323973,49.4954795 L143.323973,4.59136986 L111.219041,21.3610959 L79.1126027,4.59136986 L79.1126027,4.59136986 Z" id="Fill-12" fill="#1F3244" sketch:type="MSShapeGroup"></path>
        </g>
    </g>
</svg>