<svg width="150" height="32" viewBox="0 0 150 32" xmlns="http://www.w3.org/2000/svg">
    <title>
        Logo / Horizontal
    </title>
    <defs>
        <linearGradient x1="50%" y1="0%" x2="50%" y2="97.379%" id="a">
            <stop stop-color="#437AF4" offset="0%"/>
            <stop stop-color="#2B60D5" offset="100%"/>
        </linearGradient>
        <linearGradient x1="50%" y1="100%" x2="50%" y2="2.742%" id="b">
            <stop stop-color="#FFF" stop-opacity=".7" offset="0%"/>
            <stop stop-color="#FFF" stop-opacity=".3" offset="100%"/>
        </linearGradient>
    </defs>
    <g fill="none" fill-rule="evenodd">
        <path d="M54.004 4.174h4.426v19.478h-3.842V11.325l-.556 1.698-4.426 10.63h-3.23l-4.426-10.63-.556-1.698v12.327H37.58V4.174h4.398l5.568 12.55.417 1.14.446-1.14 5.595-12.55zm14.308 5.064c3.897 0 6.542 2.532 6.542 7.346v1.113h-9.827c.112 1.893 1.42 3.173 3.396 3.173 1.476 0 2.422-.557 2.84-1.642h3.507c-.89 3.033-3.09 4.73-6.458 4.73-2.088 0-3.786-.668-5.094-2.003-1.28-1.364-1.92-3.145-1.92-5.343 0-2.142.64-3.923 1.948-5.287 1.308-1.391 2.978-2.087 5.066-2.087zm-3.257 5.955h6.152c-.028-1.78-1.197-2.95-2.978-2.95-1.782 0-2.98 1.197-3.174 2.95zM87.66 3.339h3.619v20.313H88.16l-.279-1.892c-1.002 1.475-2.505 2.198-4.481 2.198-1.865 0-3.424-.695-4.677-2.115-1.253-1.419-1.865-3.172-1.865-5.259s.612-3.812 1.865-5.231c1.253-1.42 2.812-2.115 4.705-2.115 1.892 0 3.312.612 4.23 1.837V3.339zm-3.508 9.294c-2.004 0-3.563 1.614-3.563 3.951 0 2.366 1.531 3.98 3.563 3.98.975 0 1.81-.334 2.506-1.03.696-.696 1.057-1.67 1.057-2.866V16.5c-.027-1.197-.39-2.115-1.085-2.81-.696-.696-1.531-1.058-2.478-1.058zM95.12 9.544h3.619v14.108h-3.619V9.544zm1.81-6.288c1.196 0 2.199.946 2.199 2.142 0 1.225-.975 2.143-2.2 2.143-1.224 0-2.199-.918-2.199-2.143 0-1.196.975-2.142 2.2-2.142zm10.912 5.982c3.451 0 5.595 1.781 5.595 5.148v9.266h-3.09l-.223-1.725c-.89 1.363-2.227 2.031-4.036 2.031-2.561 0-4.287-1.586-4.287-4.062 0-2.588 1.614-3.785 4.37-4.23l3.647-.668v-.528c0-1.42-.668-2.143-1.976-2.143-1.225 0-2.116.751-2.116 1.864h-3.508c.195-2.921 2.367-4.953 5.624-4.953zm1.976 8.599v-.418l-2.812.584c-1.057.25-1.586.78-1.586 1.587 0 .862.612 1.39 1.642 1.39.974 0 1.726-.417 2.255-1.28.334-.528.501-1.14.501-1.863zm7.432-14.498h2.394v20.313h-2.394V3.34zm9.66 1.976c0 .89-.752 1.614-1.67 1.614a1.622 1.622 0 0 1-1.643-1.614c0-.918.724-1.642 1.643-1.642.918 0 1.67.724 1.67 1.642zm-2.867 4.313h2.394v14.024h-2.394V9.628zm10.69-.306c1.363 0 2.449.417 3.284 1.224.863.807 1.308 1.892 1.336 3.2h-2.45c-.027-1.475-.751-2.198-2.227-2.198-1.42 0-2.143.779-2.143 1.892 0 1.085.557 1.558 2.644 2.031 3.34.78 4.594 1.948 4.594 4.202 0 2.671-2.032 4.285-4.928 4.285-3.2 0-5.038-1.78-5.122-4.563h2.45c.028 1.558.947 2.337 2.728 2.337 1.559 0 2.422-.779 2.422-1.892 0-1.197-.668-1.725-2.923-2.254-3.006-.696-4.315-1.78-4.315-4.007 0-1.196.418-2.198 1.225-3.005.835-.835 1.977-1.252 3.424-1.252zm9.074-3.2h2.422l-.028 3.506h3.59v2.226h-3.618l-.056 7.513c0 1.642.446 2.282 2.005 2.282.612 0 1.169-.084 1.67-.25v2.142c-.501.195-1.197.306-2.088.306-2.7 0-4.008-1.224-3.98-4.035l.055-7.958h-2.617V9.628h2.617l.028-3.506z" fill="#24364C"/>
        <path d="M24.789 26.435a2.788 2.788 0 0 1-1.7 2.571c-.325.136-8.874 2.921-8.917 2.934a1.356 1.356 0 0 1-.4.06c-.76 0-1.377-.623-1.377-1.391v-6.957h-9.64C1.232 23.652 0 22.406 0 20.87V2.783C0 1.246 1.233 0 2.754 0h19.28c1.522 0 2.755 1.246 2.755 2.783v23.652z" fill="url(#a)"/>
        <path d="M22.035 23.652c1.52 0 2.754 1.246 2.754 2.783a2.788 2.788 0 0 1-1.7 2.571c-.325.136-8.874 2.921-8.917 2.934a1.356 1.356 0 0 1-.4.06c-.76 0-1.377-.623-1.377-1.391v-6.957h9.64z" fill="url(#b)"/>
        <path d="M6.886 4.174h11.017c.76 0 1.377.623 1.377 1.391 0 .769-.616 1.392-1.377 1.392H6.886c-.76 0-1.377-.623-1.377-1.392 0-.768.616-1.391 1.377-1.391zm5.509 5.565h5.508c.76 0 1.377.623 1.377 1.391 0 .769-.616 1.392-1.377 1.392h-5.508c-.761 0-1.378-.623-1.378-1.392 0-.768.617-1.39 1.378-1.39zM9.64 15.304h8.263c.76 0 1.377.623 1.377 1.392 0 .768-.616 1.391-1.377 1.391H9.64c-.76 0-1.377-.623-1.377-1.391 0-.769.617-1.392 1.377-1.392z" fill="#FFF"/>
    </g>
</svg>
