<?xml version="1.0" standalone="no"?>
<!DOCTYPE svg PUBLIC "-//W3C//DTD SVG 20010904//EN"
 "http://www.w3.org/TR/2001/REC-SVG-20010904/DTD/svg10.dtd">
<svg version="1.0" xmlns="http://www.w3.org/2000/svg"
 width="400.000000pt" height="400.000000pt" viewBox="0 0 400.000000 400.000000"
 preserveAspectRatio="xMidYMid meet">
<metadata>
Created by potrace 1.11, written by Peter Selinger 2001-2013
</metadata>
<g transform="translate(0.000000,400.000000) scale(0.100000,-0.100000)"
fill="#000000" stroke="none">
<path d="M643 3979 c-71 -27 -155 -106 -190 -177 l-28 -57 0 -1225 0 -1225 29
-58 c36 -71 99 -130 174 -165 l57 -27 650 -5 650 -5 0 -450 0 -450 25 -45 c31
-55 88 -90 149 -90 36 0 318 82 481 140 14 5 174 57 355 116 182 58 352 117
378 131 65 32 124 94 156 162 l26 56 0 1570 0 1570 -28 56 c-36 75 -117 150
-190 177 l-58 22 -1292 -1 c-1271 0 -1293 0 -1344 -20z m2126 -529 c116 -59
113 -237 -6 -296 -36 -18 -70 -19 -773 -19 -703 0 -737 1 -773 19 -118 58
-123 236 -9 296 36 18 66 19 780 20 720 0 744 -1 781 -20z m-13 -689 c104 -47
131 -173 57 -262 -49 -58 -55 -59 -479 -59 l-387 0 -43 25 c-47 28 -84 90 -84
143 0 67 55 143 116 162 16 4 198 9 404 9 345 1 378 -1 416 -18z m13 -702 c43
-24 76 -70 85 -118 14 -79 -41 -168 -119 -190 -27 -7 -218 -11 -580 -11 -503
0 -543 2 -580 19 -22 10 -48 27 -57 37 -24 27 -48 88 -48 121 0 47 38 111 83
138 l42 25 569 0 c555 0 569 0 605 -21z"/>
</g>
</svg>
