<svg width="37" height="33" viewBox="0 0 37 33" xmlns="http://www.w3.org/2000/svg">
    <title>
        Icons / Sections / 2
    </title>
    <g transform="translate(-2 -4)" fill="none" fill-rule="evenodd">
        <circle fill="#FA862C" cx="28" cy="9" r="3"/>
        <circle fill="#FA862C" cx="6.5" cy="12.5" r="3.5"/>
        <circle fill="#FA862C" cx="32" cy="32" r="3"/>
        <circle fill="#FA862C" cx="5.5" cy="27.5" r="3.5"/>
        <circle fill="#FDC396" cx="36.5" cy="17.5" r="2.5"/>
        <path d="M26.507 18.415l9.803-1.897.38 1.964-9.719 1.88a6.96 6.96 0 0 0-.464-1.947zM19.1 27.943l-2.14 7.337-1.92-.56 2.133-7.314c.603.266 1.25.45 1.927.537zm-1.926-13.35l-1.646-6.86 1.944-.466 1.63 6.79a6.952 6.952 0 0 0-1.928.537z" fill="#FDC396" fill-rule="nonzero"/>
        <circle fill="#FDC396" cx="16" cy="35" r="2"/>
        <path d="M13.54 18.298l-7.587-4.961 1.094-1.674 7.523 4.919a6.997 6.997 0 0 0-1.03 1.716zm9.498-3.606l3.157-4.285 1.61 1.186-3.107 4.217a7.012 7.012 0 0 0-1.66-1.118zm-8.625 10.526L4.387 29.422l-.774-1.844 9.83-4.122c.238.636.567 1.229.97 1.762zm11.376-.281l5.882 5.321-1.342 1.484-5.89-5.33a7.04 7.04 0 0 0 1.35-1.475z" fill="#FA862C" fill-rule="nonzero"/>
        <circle fill="#FDC396" cx="16" cy="6" r="2"/>
        <circle fill="#FA862C" cx="20" cy="21" r="4"/>
    </g>
</svg>
