<svg width="35" height="27" viewBox="0 0 35 27" xmlns="http://www.w3.org/2000/svg">
    <title>
        Icons / Sections / 4
    </title>
    <g fill="none" fill-rule="evenodd">
        <path d="M18 27c-8.284 0-15-4.03-15-9s6.716-9 15-9c8.284 0 15 4.03 15 9s-6.716 9-15 9zm4-5a4 4 0 1 0 0-8 4 4 0 0 0 0 8z" fill="#4299FF"/>
        <path d="M3.61 9.164a2 2 0 1 1-2.22-3.328C9.915.153 20.51-.906 33.036 2.573a2 2 0 1 1-1.07 3.854C20.49 3.24 11.085 4.18 3.609 9.164z" fill="#A0CCFF" fill-rule="nonzero"/>
    </g>
</svg>
