<svg width="34" height="27" viewBox="0 0 34 27" xmlns="http://www.w3.org/2000/svg">
    <title>
        Icons / Sections / 5
    </title>
    <g fill="none" fill-rule="evenodd">
        <path d="M18 4C18 .859 22.737-.21 32.21.793A2 2 0 0 1 34 2.782v18.773a2 2 0 0 1-2.364 1.966C22.546 21.84 18 23 18 27V4z" fill="#9AB3EB"/>
        <path d="M16 4C16 .859 11.263-.21 1.79.793A2 2 0 0 0 0 2.782v18.773a2 2 0 0 0 2.364 1.966C11.454 21.84 16 23 16 27V4z" fill="#2B60D5"/>
        <path d="M21.508 7.142a1.25 1.25 0 0 1-1.016-2.284c1.966-.874 5.503-1.146 9.554-.996a1.25 1.25 0 1 1-.092 2.498c-3.674-.136-6.947.116-8.446.782zM21.62 13.085a1.25 1.25 0 1 1-1.24-2.17c1.622-.927 4.444-1.207 7.68-1.052a1.25 1.25 0 0 1-.12 2.497c-2.772-.132-5.247.112-6.32.725zM21.78 18.976a1.25 1.25 0 0 1-1.56-1.952c1.282-1.026 3.424-1.323 5.863-1.16a1.25 1.25 0 1 1-.166 2.494c-1.853-.123-3.494.104-4.136.618z" fill="#FFF" fill-rule="nonzero"/>
    </g>
</svg>
