<svg width="40" height="40" viewBox="0 0 40 40" xmlns="http://www.w3.org/2000/svg" xmlns:xlink="http://www.w3.org/1999/xlink">
    <title>
        Icons / Sections / 7
    </title>
    <defs>
        <radialGradient fx="50%" fy="50%" r="50.002%" id="b">
            <stop stop-color="#FFF" offset="0%"/>
            <stop stop-color="#FFF" offset="70.126%"/>
            <stop stop-color="#FFF" stop-opacity="0" offset="100%"/>
        </radialGradient>
        <path id="a" d="M0 0h40v40H0z"/>
    </defs>
    <g fill="none" fill-rule="evenodd">
        <mask id="c" fill="#fff">
            <use xlink:href="#a"/>
        </mask>
        <use fill="url(#b)" xlink:href="#a"/>
        <path d="M31 22.498v6.252h-6.324l.002.125c0 1.726-1.415 3.125-3.16 3.125-1.746 0-3.162-1.4-3.162-3.125 0-.042.001-.084.003-.125h-6.325v-6.252C10.347 22.432 9 21.059 9 19.375c0-1.684 1.347-3.057 3.034-3.123V10h6.325a3.144 3.144 0 0 0-.003.125c0 1.726 1.416 3.125 3.161 3.125 1.746 0 3.161-1.4 3.161-3.125 0-.042 0-.084-.002-.125H31v6.252c-1.687.066-3.034 1.439-3.034 3.123 0 1.684 1.347 3.057 3.034 3.123z" fill="#2B60D5" mask="url(#c)" transform="rotate(-30 20 21)"/>
        <path d="M10.026 34.024v6.252H3.702c.002.042.002.083.002.125 0 1.726-1.415 3.125-3.16 3.125-1.746 0-3.161-1.399-3.161-3.125 0-.042 0-.083.002-.125h-6.324v-6.252c-1.687-.066-3.035-1.439-3.035-3.123 0-1.684 1.348-3.057 3.035-3.122v-6.253h6.324a3.144 3.144 0 0 0-.002.125c0 1.726 1.415 3.125 3.16 3.125 1.746 0 3.161-1.399 3.161-3.125 0-.042 0-.083-.002-.125h6.324v6.253c-1.687.065-3.034 1.438-3.034 3.122s1.347 3.057 3.034 3.123z" fill="#35BF77" opacity=".5" mask="url(#c)" transform="rotate(-30 -.974 32.526)"/>
        <path d="M19.026 2.024v6.252h-6.324c.002.042.002.083.002.125 0 1.726-1.415 3.125-3.16 3.125-1.746 0-3.161-1.399-3.161-3.125 0-.042 0-.083.002-.125H.061V2.024C-1.626 1.958-2.974.585-2.974-1.1c0-1.684 1.348-3.057 3.035-3.122v-6.253h6.324a3.144 3.144 0 0 0-.002.125c0 1.726 1.415 3.125 3.16 3.125 1.746 0 3.161-1.399 3.161-3.125 0-.042 0-.083-.002-.125h6.324v6.253c-1.687.065-3.034 1.438-3.034 3.122s1.347 3.057 3.034 3.123z" fill="#4299FF" opacity=".5" mask="url(#c)" transform="rotate(-30 8.026 .526)"/>
        <path d="M52.026 10.024v6.252h-6.324c.002.042.002.083.002.125 0 1.726-1.415 3.125-3.16 3.125-1.746 0-3.161-1.399-3.161-3.125 0-.042 0-.083.002-.125h-6.324v-6.252c-1.687-.066-3.035-1.439-3.035-3.123 0-1.684 1.348-3.057 3.035-3.122v-6.253h6.324a3.144 3.144 0 0 0-.002.125c0 1.726 1.415 3.125 3.16 3.125 1.746 0 3.161-1.399 3.161-3.125 0-.042 0-.083-.002-.125h6.324V3.78c-1.687.065-3.034 1.438-3.034 3.122s1.347 3.057 3.034 3.123z" fill="#28B6D7" opacity=".5" mask="url(#c)" transform="rotate(-30 41.026 8.526)"/>
        <path d="M43.026 43.024v6.252h-6.324c.002.042.002.083.002.125 0 1.726-1.415 3.125-3.16 3.125-1.746 0-3.161-1.399-3.161-3.125 0-.042 0-.083.002-.125h-6.324v-6.252c-1.687-.066-3.035-1.439-3.035-3.123 0-1.684 1.348-3.057 3.035-3.122v-6.253h6.324a3.144 3.144 0 0 0-.002.125c0 1.726 1.415 3.125 3.16 3.125 1.746 0 3.161-1.399 3.161-3.125 0-.042 0-.083-.002-.125h6.324v6.253c-1.687.065-3.034 1.438-3.034 3.122s1.347 3.057 3.034 3.123z" fill="#FA862C" opacity=".5" mask="url(#c)" transform="rotate(-30 32.026 41.526)"/>
    </g>
</svg>
